<?xml version="1.0" encoding="UTF-8" standalone="no"?>
<!-- Created with Inkscape (http://www.inkscape.org/) -->

<svg
   xmlns:dc="http://purl.org/dc/elements/1.1/"
   xmlns:cc="http://creativecommons.org/ns#"
   xmlns:rdf="http://www.w3.org/1999/02/22-rdf-syntax-ns#"
   xmlns:svg="http://www.w3.org/2000/svg"
   xmlns="http://www.w3.org/2000/svg"
   xmlns:sodipodi="http://sodipodi.sourceforge.net/DTD/sodipodi-0.dtd"
   xmlns:inkscape="http://www.inkscape.org/namespaces/inkscape"
   width="100mm"
   height="300mm"
   viewBox="0 0 100 300"
   version="1.1"
   id="svg8"
   inkscape:version="0.92.4 (5da689c313, 2019-01-14)"
   sodipodi:docname="head.svg">
  <defs
     id="defs2" />
  <sodipodi:namedview
     id="base"
     pagecolor="#ffffff"
     bordercolor="#666666"
     borderopacity="1.0"
     inkscape:pageopacity="0.0"
     inkscape:pageshadow="2"
     inkscape:zoom="0.42440218"
     inkscape:cx="116.01682"
     inkscape:cy="735.30028"
     inkscape:document-units="mm"
     inkscape:current-layer="layer1"
     showgrid="false"
     inkscape:window-width="1920"
     inkscape:window-height="1057"
     inkscape:window-x="-8"
     inkscape:window-y="1072"
     inkscape:window-maximized="1" />
  <metadata
     id="metadata5">
    <rdf:RDF>
      <cc:Work
         rdf:about="">
        <dc:format>image/svg+xml</dc:format>
        <dc:type
           rdf:resource="http://purl.org/dc/dcmitype/StillImage" />
        <dc:title></dc:title>
      </cc:Work>
    </rdf:RDF>
  </metadata>
  <g
     inkscape:label="レイヤー 1"
     inkscape:groupmode="layer"
     id="layer1"
     transform="translate(0,3)">
    <g
       aria-label="夏果"
       transform="matrix(1.8266267,0,0,1.8266267,-859.96334,-199.13506)"
       style="font-style:normal;font-variant:normal;font-weight:normal;font-stretch:normal;font-size:40px;line-height:1.25;font-family:'Yu Mincho';-inkscape-font-specification:'Yu Mincho, Normal';font-variant-ligatures:normal;font-variant-caps:normal;font-variant-numeric:normal;font-feature-settings:normal;text-align:start;letter-spacing:0px;word-spacing:0px;writing-mode:lr-tb;text-anchor:start;fill:#DCDCE0;fill-opacity:1;stroke:none"
       id="flowRoot815">
      <path
         d="m 492.56055,171.80859 h -3.63282 v 0.56641 q 0,1.03516 -1.52343,1.03516 -1.01563,0 -1.01563,-0.87891 l 0.15625,-8.63281 q 0,-5.07813 -0.17578,-7.10938 1.64063,0.625 2.91016,1.38672 h 5.19531 q 0.76172,-2.01172 1.17187,-3.63281 h -11.60156 q -1.71875,0 -3.20312,0.23437 l -0.39063,-1.5039 q 1.67969,0.27343 3.59375,0.27343 h 25.80078 q 1.89453,-2.20703 2.26563,-2.20703 0.33203,0 2.40234,1.64063 1.03516,0.82031 1.03516,1.21094 0,0.35156 -0.50781,0.35156 h -16.52344 q -1.38672,2.22656 -2.59766,3.63281 h 10.29297 q 1.23047,-1.26953 1.46484,-1.26953 0.3125,0 1.67969,1.07422 0.64453,0.50781 0.64453,0.8789 0,0.42969 -1.07422,1.11329 v 3.59375 l 0.13672,8.6914 q 0,0.9961 -1.54297,0.9961 -0.99609,0 -0.99609,-0.83985 v -0.60547 h -13.28125 q 2.38281,0.78125 2.38281,1.25 0,0.41016 -1.30859,0.56641 l -1.19141,1.44531 h 10.42969 q 1.25,-1.28906 1.52344,-1.28906 0.27344,0 1.75781,1.32812 0.76172,0.70313 0.76172,1.07422 0,0.41016 -1.67969,0.6836 -2.59765,2.71484 -5.99609,4.92187 1.15234,0.50781 2.48047,0.95703 5.27343,1.83594 13.65234,1.83594 0.17578,0 0.17578,0.21484 0,0.19532 -0.17578,0.23438 -0.82031,0.15625 -1.21094,0.56641 -0.39062,0.39062 -0.72265,1.26953 -0.21485,0.72265 -0.74219,0.72265 -1.30859,0 -3.16406,-0.39062 -5.72266,-1.17188 -9.6875,-3.00781 -1.52344,-0.72266 -2.44141,-1.32813 -6.99219,3.84766 -18.32031,4.96094 -0.25391,0.0391 -0.25391,-0.35156 0,-0.17579 0.13672,-0.21485 9.84375,-1.73828 16.64063,-5.54687 -2.98829,-2.26563 -4.96094,-4.80469 -4.76563,4.62891 -10.83985,6.58203 -0.0391,0.0195 -0.0586,0.0195 -0.27344,0 -0.27344,-0.33203 0,-0.11719 0.0781,-0.15625 3.16406,-1.54297 6.28906,-4.16016 2.51953,-2.1289 4.23828,-4.3164 1.13281,-1.38672 1.79688,-2.73438 z m -0.64453,4.53125 q 2.1875,2.38282 5.8789,4.45313 3.33985,-2.16797 5.60547,-4.72656 h -11.19141 z m -2.98829,-13.04687 v 3.16406 h 17.59766 v -3.16406 z m 17.59766,-0.9961 v -3.125 h -17.59766 v 3.125 z m -17.59766,5.15625 v 3.35938 h 17.59766 v -3.35938 z"
         style="font-style:normal;font-variant:normal;font-weight:normal;font-stretch:normal;font-size:40px;font-family:'Yu Mincho';-inkscape-font-specification:'Yu Mincho, Normal';font-variant-ligatures:normal;font-variant-caps:normal;font-variant-numeric:normal;font-feature-settings:normal;text-align:start;writing-mode:tb-rl;text-anchor:start;fill:#DCDCE0"
         id="path840"
         inkscape:connector-curvature="0" />
      <path
         d="M 496.33008,212.45312 V 207.375 h -8.47656 v 0.56641 q 0,1.03515 -1.48438,1.03515 -1.03516,0 -1.03516,-0.76172 l 0.15625,-8.84765 q 0,-5.13672 -0.23437,-7.07032 1.46484,0.52735 2.91016,1.36719 h 19.02343 q 1.19141,-1.23047 1.46485,-1.23047 0.35156,0 1.67968,1.15235 0.60547,0.54687 0.60547,0.83984 0,0.42969 -1.07422,1.07422 v 3.51562 l 0.15625,8.73047 q 0,1.07422 -1.48437,1.07422 -1.07422,0 -1.07422,-0.91797 V 207.375 h -8.73047 v 5.07812 h 11.48438 q 1.93359,-2.16796 2.20703,-2.16796 0.35156,0 2.36328,1.64062 0.95703,0.78125 0.95703,1.11328 0,0.41016 -0.52734,0.41016 h -16.13282 q 3.04688,3.88672 7.22657,6.17187 4.64843,2.51953 10.33203,3.39844 0.17578,0.0195 0.17578,0.21484 0,0.17579 -0.17578,0.21485 -1.3086,0.23437 -1.75781,1.52344 -0.25391,0.80078 -0.6836,0.80078 -0.625,0 -2.24609,-0.6836 -4.00391,-1.73828 -7.01172,-4.08203 -3.98438,-3.08594 -6.32813,-6.75781 0.3125,10.39062 0.3125,12.28516 0,1.11328 -1.64062,1.11328 -1.11328,0 -1.11328,-0.95703 0,-3.76954 0.3125,-11.36719 -6.15235,7.1875 -16.6211,10.41015 -0.0391,0 -0.0586,0 -0.27344,0 -0.27344,-0.39062 0,-0.13672 0.0781,-0.17578 9.88281,-4.55078 15.27344,-11.71875 h -11.34766 q -1.46484,0 -2.92969,0.19531 l -0.35156,-1.46484 q 1.83594,0.27343 3.28125,0.27343 z m 2.40234,-6.07421 h 8.73047 v -5.44922 h -8.73047 z m -2.40234,0 v -5.44922 h -8.47656 v 5.44922 z m 2.40234,-6.44532 h 8.73047 v -5.27343 h -8.73047 z m -2.40234,0 v -5.27343 h -8.47656 v 5.27343 z"
         style="font-style:normal;font-variant:normal;font-weight:normal;font-stretch:normal;font-size:40px;font-family:'Yu Mincho';-inkscape-font-specification:'Yu Mincho, Normal';font-variant-ligatures:normal;font-variant-caps:normal;font-variant-numeric:normal;font-feature-settings:normal;text-align:start;writing-mode:tb-rl;text-anchor:start;fill:#DCDCE0"
         id="path842"
         inkscape:connector-curvature="0" />
    </g>
    <flowRoot
       xml:space="preserve"
       id="flowRoot823"
       style="font-style:normal;font-weight:normal;font-size:40px;line-height:1.25;font-family:sans-serif;letter-spacing:0px;word-spacing:0px;fill:#000000;fill-opacity:1;stroke:none"
       transform="scale(0.26458333)"><flowRegion
         id="flowRegion825"><rect
           id="rect827"
           width="201.45985"
           height="245.05058"
           x="148.44411"
           y="187.08621" /></flowRegion><flowPara
         id="flowPara829"></flowPara></flowRoot>  </g>
</svg>
